<?xml version="1.0" encoding="UTF-8" standalone="no"?>
<!-- Created with Inkscape (http://www.inkscape.org/) -->

<svg
   width="27.457512mm"
   height="11.689323mm"
   viewBox="0 0 27.457512 11.689323"
   version="1.1"
   id="svg1"
   inkscape:version="1.4 (e7c3feb1, 2024-10-09)"
   sodipodi:docname="logo_resolved.svg"
   inkscape:export-filename="kups-logo-transparent.png"
   inkscape:export-xdpi="2000"
   inkscape:export-ydpi="2000"
   xmlns:inkscape="http://www.inkscape.org/namespaces/inkscape"
   xmlns:sodipodi="http://sodipodi.sourceforge.net/DTD/sodipodi-0.dtd"
   xmlns="http://www.w3.org/2000/svg"
   xmlns:svg="http://www.w3.org/2000/svg">
  <sodipodi:namedview
     id="namedview1"
     pagecolor="#ffffff"
     bordercolor="#000000"
     borderopacity="0.25"
     inkscape:showpageshadow="2"
     inkscape:pageopacity="0.0"
     inkscape:pagecheckerboard="0"
     inkscape:deskcolor="#d1d1d1"
     inkscape:document-units="mm"
     inkscape:zoom="7.1786632"
     inkscape:cx="57.949508"
     inkscape:cy="22.845479"
     inkscape:window-width="2560"
     inkscape:window-height="1377"
     inkscape:window-x="5"
     inkscape:window-y="30"
     inkscape:window-maximized="0"
     inkscape:current-layer="g12"
     inkscape:export-bgcolor="#ffffff00" />
  <defs
     id="defs1" />
  <g
     inkscape:label="Layer 1"
     inkscape:groupmode="layer"
     id="layer1"
     transform="translate(-4.1346371,-4.5489993)">
    <text
       xml:space="preserve"
       style="font-style:normal;font-variant:normal;font-weight:600;font-stretch:normal;font-size:3.52777px;font-family:'CMU Bright';-inkscape-font-specification:'CMU Bright Semi-Bold';text-align:start;letter-spacing:0px;writing-mode:lr-tb;direction:ltr;text-anchor:start;fill:#1a1a1a;stroke-width:2.5;stroke-linecap:round;stroke-linejoin:round"
       x="70.263161"
       y="14.851543"
       id="text6"><tspan
         sodipodi:role="line"
         id="tspan6"
         style="stroke-width:2.5"
         x="70.263161"
         y="14.851543" /><tspan
         sodipodi:role="line"
         style="stroke-width:2.5"
         id="tspan7"
         x="70.263161"
         y="19.261255" /></text>
    <text
       xml:space="preserve"
       style="font-style:normal;font-variant:normal;font-weight:bold;font-stretch:normal;font-size:12.7px;line-height:40;font-family:'Courier New';-inkscape-font-specification:'Courier New Bold';text-align:start;letter-spacing:0px;writing-mode:lr-tb;direction:ltr;text-anchor:start;fill:#1a1a1a;stroke:#000000;stroke-width:0.2;stroke-linecap:square;stroke-linejoin:miter;stroke-dasharray:none;stroke-opacity:1"
       x="48.958881"
       y="13.349317"
       id="text8"><tspan
         sodipodi:role="line"
         id="tspan8"
         style="font-style:normal;font-variant:normal;font-weight:normal;font-stretch:normal;line-height:40;font-family:'Pixelify Sans';-inkscape-font-specification:'Pixelify Sans';letter-spacing:0px;fill:#1a1a1a;stroke:#000000;stroke-width:0.2;stroke-linecap:square;stroke-linejoin:miter;stroke-dasharray:none;stroke-opacity:1"
         x="48.958881"
         y="13.349317" /></text>
    <text
       xml:space="preserve"
       style="font-style:normal;font-variant:normal;font-weight:normal;font-stretch:normal;font-size:10.5833px;line-height:40;font-family:'Rubik Iso';-inkscape-font-specification:'Rubik Iso';font-variant-ligatures:normal;font-variant-position:normal;font-variant-caps:normal;font-variant-numeric:normal;font-variant-alternates:normal;font-variant-east-asian:normal;font-feature-settings:normal;text-indent:0;text-align:start;text-decoration-line:none;text-decoration-style:solid;text-decoration-color:#000000;letter-spacing:0px;word-spacing:normal;text-transform:none;writing-mode:lr-tb;direction:ltr;text-orientation:mixed;dominant-baseline:auto;baseline-shift:baseline;white-space:normal;opacity:1;vector-effect:none;fill:#000000;fill-opacity:1;stroke:#000000;stroke-width:0.2;stroke-linecap:square;stroke-linejoin:miter;stroke-miterlimit:4;stroke-dasharray:none;stroke-dashoffset:0;stroke-opacity:1;-inkscape-stroke:none"
       x="79.158539"
       y="29.81522"
       id="text5"><tspan
         sodipodi:role="line"
         id="tspan5"
         style="stroke-width:0.2"
         x="79.158539"
         y="29.81522" /><tspan
         sodipodi:role="line"
         style="stroke-width:0.2"
         id="tspan9"
         x="79.158539"
         y="453.14722" /></text>
    <g
       id="g12"
       transform="matrix(0.82394478,0,0,0.82394478,-27.113282,4.1674191)">
      <path
         style="font-style:italic;font-weight:500;font-size:16.5806px;line-height:20;font-family:'CMU Serif';-inkscape-font-specification:'CMU Serif Medium Italic';fill:#1a1a1a;stroke-width:2.5;stroke-linecap:round;stroke-linejoin:round"
         d="m 41.116279,12.900811 q 0,-0.149225 0.03316,-0.215548 l 2.453929,-9.7825543 q 0,0 0.01658,-0.1326448 0.03316,-0.1160642 0.03316,-0.1492254 0,-0.099484 -0.03316,-0.1492255 -0.03316,-0.049742 -0.232129,-0.082903 -0.182386,-0.049742 -0.56374,-0.049742 -0.397934,0 -0.397934,-0.1823866 0,-0.1492254 0.04974,-0.2155478 0.06632,-0.082903 0.132645,-0.099484 0.06632,-0.016581 0.198967,-0.033161 l 1.64148,-0.1326448 q 0.09948,-0.033161 0.265289,-0.033161 0.232129,0 0.232129,0.1989672 0,0.066322 -0.04974,0.2155478 l -1.691221,6.7648851 q 0.431095,-0.1989672 0.746127,-0.497418 0.315031,-0.2984508 1.044578,-1.1440614 1.160642,-1.3596093 2.155478,-1.3596093 0.513998,0 0.779288,0.3150314 0.26529,0.2984508 0.26529,0.6798046 0,0.4310957 -0.26529,0.6798047 -0.248709,0.248709 -0.56374,0.248709 -0.298451,0 -0.447677,-0.165806 -0.132644,-0.165806 -0.132644,-0.3647732 0,-0.1160642 0.03316,-0.2487091 0.04974,-0.1492254 0.232128,-0.331612 0.198967,-0.1989672 0.513999,-0.248709 -0.198967,-0.1989672 -0.447676,-0.1989672 -0.397935,0 -0.82903,0.2818702 -0.414515,0.2652896 -0.679805,0.5305792 -0.248709,0.2652897 -0.82903,0.9285137 -0.696385,0.7958688 -1.177223,1.0943196 2.20522,0.3150315 2.20522,1.7243827 0,0.232128 -0.0829,0.580321 -0.132645,0.663224 -0.132645,0.928513 0,0.712966 0.480838,0.712966 0.265289,0 0.464257,-0.165806 0.215547,-0.182386 0.364773,-0.513998 0.149225,-0.348193 0.232128,-0.613483 0.09948,-0.265289 0.198967,-0.679804 0.06632,-0.26529 0.116065,-0.315032 0.04974,-0.06632 0.198967,-0.06632 0.248709,0 0.248709,0.165806 0,0.04974 -0.06632,0.315031 -0.06632,0.26529 -0.215547,0.679805 -0.149226,0.414515 -0.315032,0.696385 -0.497418,0.862192 -1.276706,0.862192 -0.54716,0 -0.978255,-0.397935 -0.414516,-0.397934 -0.414516,-1.210384 0,-0.28187 0.06632,-0.56374 0.04974,-0.232129 0.04974,-0.414515 0,-0.447676 -0.315032,-0.7627078 Q 44.133948,9.6675938 43.785756,9.534949 43.454144,9.4023042 43.07279,9.3525624 l -0.845611,3.3658616 q -0.132644,0.613483 -0.646643,0.613483 -0.215548,0 -0.348193,-0.132645 -0.116064,-0.132645 -0.116064,-0.298451 z"
         id="text1"
         aria-label="k " />
      <path
         style="font-weight:600;font-size:11.6657px;line-height:40;font-family:'Pixelify Sans';-inkscape-font-specification:'Pixelify Sans Semi-Bold';letter-spacing:-0.132292px;baseline-shift:baseline;fill:#1a1a1a;stroke:#000000;stroke-width:0;stroke-linecap:square"
         d="m 50.406567,13.282525 v -1.00325 H 49.368319 V 5.7348173 h 1.376553 v 6.1011607 h 2.776436 V 5.7348173 h 1.388219 v 6.5444577 h -1.049913 v 1.00325 z m 5.793885,0 V 6.7613989 h 1.038247 V 5.7348173 h 3.453047 v 1.0265816 h 1.049913 v 3.4647131 h -1.049913 v 1.026581 h -3.114742 v 2.029832 z m 1.376552,-3.4880441 h 2.776437 V 7.1930298 h -2.776437 z m 6.493827,3.4880441 v -1.00325 h -1.038247 v -1.458213 h 1.376553 v 1.014916 h 2.776436 V 10.226112 H 64.070831 V 9.2228616 H 63.032584 V 6.7613989 h 1.038247 V 5.7348173 h 3.453047 v 1.0265816 h 1.049913 V 8.2079457 H 67.185573 V 7.1930298 h -2.776436 v 1.5982009 h 3.114741 v 1.0032502 h 1.049913 v 2.4847941 h -1.049913 v 1.00325 z"
         id="text10"
         aria-label="UPS" />
    </g>
  </g>
</svg>
